# File created by Blade
# Date/Time:  Tue Apr 07 20:53:11 2015
# Frame Rate: 120.000 fps
#------------------------------------------------------
:FULLY-SPECIFIED
:DEGREES
699
root 0.402809 39.788837 3.205691 25.545488 -56.799572 -188.912654
Spine -16.534139 -18.605579 7.886974
Head -72.541641 -4.816370 11.806236
LeftShoulder -72.120645 -57.690531 135.230021
LeftArm 2.766798 -28.570789 -47.244522
LeftForeArm -8.950074 0.000000 32.777992
LeftHand 17.178617 -0.000000 85.936708
LeftHandThumb1 -26.253704 0.000000 33.147579
RightShoulder -34.408081 46.923193 -65.713593
RightArm 49.705507 30.212363 25.668858
RightForeArm 23.022176 0.000000 -4.009502
RightHand 24.762700 -0.000000 -91.002398
RightHandThumb1 -24.326973 -0.000000 -32.862282
LeftUpLeg 1.300652 1.733661 33.370500
LeftLeg 14.590273 -0.000000 -0.000000
LeftFoot 38.053055 29.964097 -5.581263
LeftToeBase 19.375442 -0.000000 -0.000000
RightUpLeg -100.512567 -43.790662 -1.969455
RightLeg 1.471606 -0.000000 -0.000000
RightFoot 42.076218 -13.338617 -0.226594
RightToeBase 23.780794 -0.000000 -0.000000
700
root 0.587816 39.832457 3.241152 24.862024 -55.980223 -189.808574
Spine -15.253883 -18.874366 8.132232
Head -72.371703 -5.075778 11.843487
LeftShoulder -71.822247 -57.858214 135.014839
LeftArm 2.525605 -28.253389 -47.039396
LeftForeArm -9.503265 0.000000 32.880911
LeftHand 17.104312 -0.000000 85.758742
LeftHandThumb1 -26.253704 0.000000 33.147579
RightShoulder -34.148380 46.854100 -65.428531
RightArm 49.690822 30.624921 25.385686
RightForeArm 22.496533 -0.000000 -3.893934
RightHand 24.850661 0.000000 -90.504869
RightHandThumb1 -24.326973 -0.000000 -32.862282
LeftUpLeg 1.281407 2.047151 32.979434
LeftLeg 14.786330 -0.000000 -0.000000
LeftFoot 38.331606 29.620583 -5.554306
LeftToeBase 19.346445 -0.000000 -0.000000
RightUpLeg -101.281764 -45.012308 -2.301017
RightLeg 1.365429 -0.000000 -0.000000
RightFoot 41.425745 -13.336476 -0.481125
RightToeBase 24.389445 -0.000000 -0.000000
701
root 0.784798 39.871895 3.275651 24.321792 -55.240145 -190.753116
Spine -14.102981 -19.041886 8.361169
Head -72.178656 -5.292136 11.969592
LeftShoulder -71.520516 -58.002836 134.816371
LeftArm 2.438078 -27.975330 -46.945545
LeftForeArm -10.230418 -0.000000 32.833056
LeftHand 17.227527 -0.000000 85.594521
LeftHandThumb1 -26.253704 0.000000 33.147579
RightShoulder -33.883166 46.667502 -65.179642
RightArm 49.601340 31.279486 25.424483
RightForeArm 21.644365 -0.000000 -3.537219
RightHand 24.985187 -0.000000 -90.037552
RightHandThumb1 -24.326973 -0.000000 -32.862282
LeftUpLeg 1.294083 2.443231 32.580504
LeftLeg 14.967903 -0.000000 -0.000000
LeftFoot 38.462051 29.381753 -5.779186
LeftToeBase 19.183910 -0.000000 -0.000000
RightUpLeg -102.603381 -46.090581 -2.098823
RightLeg 1.342711 -0.000000 -0.000000
RightFoot 40.906896 -13.088624 -1.012239
RightToeBase 23.950640 -0.000000 -0.000000
702
root 0.994394 39.909503 3.316231 23.781301 -54.496113 -191.663129
Spine -13.048847 -19.146004 8.606049
Head -71.965252 -5.591886 12.022786
LeftShoulder -70.713729 -58.102015 134.205816
LeftArm 2.295708 -28.029427 -46.890457
LeftForeArm -10.931599 -0.000000 32.844517
LeftHand 17.233513 -0.000000 85.309648
LeftHandThumb1 -26.253704 0.000000 33.147579
RightShoulder -33.369186 46.156123 -64.594398
RightArm 49.717067 32.200231 25.423183
RightForeArm 20.723119 -0.000000 -3.247012
RightHand 25.089126 -0.000000 -89.256564
RightHandThumb1 -24.326973 -0.000000 -32.862282
LeftUpLeg 1.332713 2.753331 32.152019
LeftLeg 15.181941 -0.000000 -0.000000
LeftFoot 38.273553 29.342176 -6.288734
LeftToeBase 19.298522 -0.000000 -0.000000
RightUpLeg -104.178092 -47.154672 -1.679324
RightLeg 1.347538 -0.000000 -0.000000
RightFoot 40.457456 -12.906103 -1.629121
RightToeBase 23.368530 -0.000000 -0.000000
703
root 1.206995 39.936126 3.346995 23.302192 -53.782183 -192.813812
Spine -11.797765 -19.103118 8.949339
Head -71.924134 -6.073066 12.050666
LeftShoulder -68.037688 -57.897941 131.450558
LeftArm 2.864199 -28.930931 -47.034594
LeftForeArm -11.760528 -0.000000 33.111148
LeftHand 17.246371 -0.000000 85.237337
LeftHandThumb1 -26.253704 0.000000 33.147579
RightShoulder -33.367884 45.893038 -64.513070
RightArm 49.847991 32.706613 25.502122
RightForeArm 19.837311 -0.000000 -2.956698
RightHand 25.045858 -0.000000 -88.759084
RightHandThumb1 -24.326973 -0.000000 -32.862282
LeftUpLeg 1.521596 2.972192 31.848058
LeftLeg 15.503826 -0.000000 -0.000000
LeftFoot 38.033466 29.304145 -6.668646
LeftToeBase 19.108069 -0.000000 -0.000000
RightUpLeg -105.529428 -48.079057 -1.325918
RightLeg 1.284794 -0.000000 -0.000000
RightFoot 40.195929 -12.996199 -2.410683
RightToeBase 22.991159 -0.000000 -0.000000
